# xmcd
#
# Track frame offsets: 
#        150
#        9603
#        18632
#        33939
#        47833
#        61099
#        75403
#        91504
#        106493
#
# Disc length: 1597 seconds
#
# Revision: 0
# Processed by: cddbd v1.5.2PL0 Copyright (c) Steve Scherf et al.
# Submitted via: ExactAudioCopyFreeDBPlugin 1.0
#
DISCID=5d063b09
DTITLE=The Headcutters - Back To 50's
DYEAR=2009
DGENRE=Blues
TTITLE0=Nobody But You
TTITLE1=She's My Baby
TTITLE2=Sad Hours
TTITLE3=Blues With A Felling
TTITLE4=Temperature
TTITLE5=Please Don't Leave Me
TTITLE6=Little Machine
TTITLE7=Mercy Baby
TTITLE8=T-Bonin'
EXTD=
EXTT0=
EXTT1=
EXTT2=
EXTT3=
EXTT4=
EXTT5=
EXTT6=
EXTT7=
EXTT8=
PLAYORDER=
